<svg xmlns="http://www.w3.org/2000/svg" viewBox="0 0 105.92 168.49"><defs><style>.cls-1{fill:#77757a;}.cls-1,.cls-10,.cls-11,.cls-12,.cls-13,.cls-14,.cls-15,.cls-16,.cls-17,.cls-18,.cls-2,.cls-3,.cls-4,.cls-5,.cls-6,.cls-7,.cls-8,.cls-9{fill-rule:evenodd;}.cls-19,.cls-2{fill:#000101;}.cls-3{fill:#108cbd;}.cls-4{fill:#de9357;}.cls-20,.cls-5{fill:#fff;}.cls-6{fill:#1e323b;}.cls-7{fill:#eba43e;}.cls-8{fill:#cc5378;}.cls-9{fill:#984640;}.cls-10{fill:#eba33e;}.cls-11{fill:#0c0700;}.cls-12{fill:#fefefe;}.cls-13{fill:#fcfcfc;}.cls-14{fill:#e8a23d;}.cls-15{fill:#e6a03d;}.cls-16{fill:#eeeeef;}.cls-17{fill:#dd9256;}.cls-18{fill:#eaa33e;}</style></defs><title>Dog</title><g id="Ebene_2" data-name="Ebene 2"><g id="Ebene_1-2" data-name="Ebene 1"><g id="DOG"><path class="cls-1" d="M105.92,70.11l-.11,0v-.75l.11,0Z"/><path class="cls-2" d="M0,164.7c.33-.38.11-1,.36-1.36a19.63,19.63,0,0,1,3.2-4.07c4.24-4.12,9.3-5.61,14.64-6.27,1.11-.14,2.22-.12,3.45-.15l-.27-.25A43.23,43.23,0,0,1,14,144a46.3,46.3,0,0,1-4.46-8.32c-.17-.43-.37-.51-.72-.38a2.66,2.66,0,0,1-2-.13C4.23,134,3,131.52,3.53,128.35a18.1,18.1,0,0,1,1.8-4.69A1,1,0,0,0,5.5,123c-.22-1.21-.48-2.4-.59-3.64a2.13,2.13,0,0,0-.32-.91A26.8,26.8,0,0,0,2.26,115a3.23,3.23,0,0,1-.54-1c-.86-2.34-1-6.35.53-8.5,1-1.4,4.58-5.95,5.22-7.57A50.79,50.79,0,0,1,13.4,87.32c1.82-2.56,5.65-7.28,6-8.07A6.59,6.59,0,0,0,19,73.93c-.16-.43-.21-.55-.54-.56-.66,0-4.22-1-7-5.93a25.46,25.46,0,0,1-3.2-7.37,16.16,16.16,0,0,1,.22-8.24c.37-1.19.35-1.49-.57-2.17A9.62,9.62,0,0,1,6.22,46a21.06,21.06,0,0,1,.17-3.66c.14-1.34.36-2.67.52-4A53.18,53.18,0,0,1,8.2,30.06a9.28,9.28,0,0,1,1.49-2.75,7.18,7.18,0,0,1,.83-.58,25.75,25.75,0,0,1,5.92-2,9.8,9.8,0,0,1,4.62-.44c.27.06.37-.16.5-.32a38.53,38.53,0,0,1,6-6.79c.08-.07.22-.16.17-.26-.26-.47-1.08-2.47-1.15-2.61a16.5,16.5,0,0,1-.83-3A20.81,20.81,0,0,0,23.62,7c-.55-.92-.67-.85.18-1.8a10.52,10.52,0,0,1,2.59-2c3.31-2,19.42-3.37,20-3.26.92.2,1.87.21,2.8.34a5.81,5.81,0,0,1,1.1.37.23.23,0,0,1,.17.26c0,.16-1.3,10.18-1.69,11.57-.06.23,0,.37.24.34a29.93,29.93,0,0,0,6.2-1.69c.3-.14.57-.35.88-.48a.82.82,0,0,1,1,.35c.51.64.7,2.68-.39,3.51.51,0,.92,0,1.33,0a1.08,1.08,0,0,1,1.08.48,1.26,1.26,0,0,1-.19,1.31c-.31.47-.21.72.11,1.12a39,39,0,0,1,4,6,1.55,1.55,0,0,0,1.2.86,15.07,15.07,0,0,0,3.67.17c1.25,0,2.51-.05,3.76,0,2.22,0,3.5,1.56,3.58,4.13a46.93,46.93,0,0,1-1.15,11.53c-.16.75-.39,1.49-.58,2.23a1.39,1.39,0,0,0,0,.87A32.17,32.17,0,0,1,75.2,56.88a30.07,30.07,0,0,1-1.57,7.25,8.74,8.74,0,0,1-.79,1.75,25.44,25.44,0,0,0-5.77,7.9,1.29,1.29,0,0,0-.14.53c-.06,1.43-.44,2.83.24,4.26a61.49,61.49,0,0,0,3.06,5.89c2,3.26,4.24,6.35,6,9.83A11.76,11.76,0,0,1,77,89.67a29.65,29.65,0,0,1,3.84-7.06A44,44,0,0,1,91.15,72.47a29.31,29.31,0,0,1,7-3.91,12.48,12.48,0,0,1,4.13-.88c.73,0,1.45-.34,2.19,0s1.39.65,1.35,1.74a2.41,2.41,0,0,1,0,.7,3.77,3.77,0,0,1-1.17,2.79A34.68,34.68,0,0,1,101.55,76a21.54,21.54,0,0,0-3.07,3.69A10.69,10.69,0,0,0,97.76,81c-.22.46-.2.66.32.8,1.78.45,2.47,2.34,1.57,4.17a13.62,13.62,0,0,1-3.17,3.85,27.21,27.21,0,0,0-2.94,2.81,4.67,4.67,0,0,0-.47.66c-.24.43-.24.71.23,1a2.05,2.05,0,0,1,.87,2,7.57,7.57,0,0,1-1,2.94,37.19,37.19,0,0,1-2.82,4.23c-1,1.38-1.7,3-2.91,4.23a.92.92,0,0,0-.16.3,78.83,78.83,0,0,0-2.94,7.45A31.67,31.67,0,0,0,83,122.37a17.23,17.23,0,0,1-.72,4.39,29,29,0,0,0-.73,4,55.17,55.17,0,0,1-4.86,14.73,37.27,37.27,0,0,1-4,6.15c-.43.54-.44.55.17.81a11,11,0,0,1,5.28,4.38,12.92,12.92,0,0,1,1.07,7.89c-.2.88-.63,1.64-.91,2.49a1.13,1.13,0,0,1-1.23.75c-2,0-4,0-6,0S67,168,65,168.1c-2.56.11-5.12.36-7.69.39-1.33,0-1.71-.55-1.77-2.1a38.61,38.61,0,0,1,.51-5.52,9.85,9.85,0,0,1,.91-2,4.42,4.42,0,0,0-1.18.4c-2.66,1.13-13.74,2.19-14,1.13a8.43,8.43,0,0,1,.23,2.68,3.74,3.74,0,0,1-.83,2.24,4.61,4.61,0,0,1-3.29,1.82c-1.5,0-3,.42-4.46.59a34.32,34.32,0,0,1-3.69.24c-4,0-7.93,0-11.9,0-2.63,0-5.25.26-7.88.34a57.56,57.56,0,0,1-6.7,0,5.24,5.24,0,0,1-2.73-1c-.19-.14-.41-.24-.45-.55A5.6,5.6,0,0,0,0,165.56v-.86"/><path class="cls-3" d="M24.44,98.13c.19,2.72,1.09,5.08,3.35,6.33a5.09,5.09,0,0,0,5.43-.37,12,12,0,0,0,5.41-8.35,11.28,11.28,0,0,0-.06-4.65c0-.2-.21-.44-.06-.59s.34,0,.51.06c3.67,1.09,20.43,5.52,21.53,5.5.15,0,5.71-5.39,7.45-6.92.54-.47,2.21-1.44,2.54-1.67s.46.32.61.55c1.68,2.55,3.19,5.23,4.63,8a45.21,45.21,0,0,1,4.57,12.51,32.91,32.91,0,0,1,.91,5.35,37.15,37.15,0,0,1-.66,8.61,18.74,18.74,0,0,1-1.5,4.8c-2.4,4.05-8.58,9.67-12.88,12.82a49.14,49.14,0,0,1-18.88,8.88,42.58,42.58,0,0,1-9.7.66,73.88,73.88,0,0,1-15-1.87,21.75,21.75,0,0,1-2.41-.8,4.77,4.77,0,0,1-1.53-1c-2.34-2.07-3.79-5-5.37-7.71a51.51,51.51,0,0,1-2.87-6.28c-.43-1.05-1-2-1.43-3.07a27.23,27.23,0,0,1-.94-4.35c-.41-1.81-.35-3.73-.89-5.47a19.7,19.7,0,0,1-.66-6.87,43.44,43.44,0,0,1,1.37-10.6A34.62,34.62,0,0,1,12.09,93a3.83,3.83,0,0,0,3.57.46c3.09-.76,6.08-2,9.11-3a1.77,1.77,0,0,1,1-.21A28.56,28.56,0,0,0,24.44,98.13Z"/><path class="cls-4" d="M26.18,79.9a22.29,22.29,0,0,0-3.76-2.47c-.53-.27-.46-.91-.56-1.37a7.36,7.36,0,0,0-1-2.61,11.05,11.05,0,0,0,2.42-.89A1,1,0,0,1,25,73c.52,1.18,1,2.45,2.07,3.18a2.69,2.69,0,0,0,3.72-.41,2.61,2.61,0,0,0,.56-2.15c-.11-.69-.2-1.39-.3-2.15,1.14.31,2.17.79,3.28,1,5.21,1,12.61-11.5,11.44-19.42-.66-4.46-3.59-8.14-6.84-9.19-.2-.06-.4-.12-.59-.2A35.29,35.29,0,0,0,31,42.88c-1.53.2-3.06-.15-4.6-.09a23.1,23.1,0,0,0-6.28.61c-.65.21-1.31-.17-2,0A12.16,12.16,0,0,0,13,45.68a2.74,2.74,0,0,1-.27.16,15.05,15.05,0,0,1,.74-2.28c1.38-3.81,2-5.4,3.46-9.41a66,66,0,0,1,5.83-8.36c1.57-1.91,3.1-3.87,4.8-5.62a.47.47,0,0,0,.09-.1c.17-.33.14-.89.54-1s.51.46.82.65a8.2,8.2,0,0,0,4.1,1,16.8,16.8,0,0,0,10-2.93,27.08,27.08,0,0,0,3.18-2.14c.33-.28,2-1.55,2.8-1.47.28,0,6-1.3,7-2.05.2-.15.24.09.27.24A1.27,1.27,0,0,1,56,13.6a3.35,3.35,0,0,0-1,1.13c-.13.33-.16.59.16.76a3.36,3.36,0,0,0,2.55.54,6.39,6.39,0,0,0-.54,1.34c-.06.5.18.78.6.65.13,0,.2-.23.37,0,1.33,2.16,2.57,4.39,3.76,6.65a3.81,3.81,0,0,1,.16.44c-.66.16-1.31,0-2,.16-.44.09-.87.27-1.31.33-.23,0-.29.24-.38.42a6.85,6.85,0,0,0-.68,2.42,76.32,76.32,0,0,0-.34,10.46,80.34,80.34,0,0,0,.46,10.38,9.15,9.15,0,0,0,1.39,4.35A51.15,51.15,0,0,0,63.68,57c.5.36,2.65,1.77,3.13,1.46a3.8,3.8,0,0,0,1.25-1.7c1.53-3.3,2.77-6.75,4.06-10.18.1-.26.2-.51.35-.88a23.48,23.48,0,0,1,.76,3.65,28.15,28.15,0,0,1-1.68,15.1c-.17.43-.54.64-.77,1a41.61,41.61,0,0,1-2.57,3.61,23.85,23.85,0,0,0-2.42,3.77,1.35,1.35,0,0,1-.85.9c-2.59,1.35-5.38,2-8.05,3.08s-5.37,2.26-8.09,3.27c-3.54,1.31-6.9,3.15-10.44,4.43-1.93.69-4.29,1.75-6.28.15C30.93,83.78,26.95,80.51,26.18,79.9Z"/><path class="cls-4" d="M43.1,58a19.58,19.58,0,0,1-4,9.31c-.5.66-1.08,1.23-1.61,1.86a3.59,3.59,0,0,1-4.16,1.13,17.21,17.21,0,0,1-2.69-1.16,2.39,2.39,0,0,0-1.49-.29,2.08,2.08,0,0,1-1.38-.22,11.29,11.29,0,0,1-4.68-4.56,20.94,20.94,0,0,1-2.37-6.43c-.11-.73-.66-3.39-.46-3.77s.93-.27,1.17-.48A16.76,16.76,0,0,0,24.51,49a12.74,12.74,0,0,1,3.83-4.05,1,1,0,0,1,.64-.23c1.93.17,3.87,0,5.79.31,5.6,1.08,6.25,3.41,7,4.68A14.16,14.16,0,0,1,43.1,58Z"/><path class="cls-4" d="M82.52,114.77c-.2-1.12-.17-2.27-.4-3.37-.13-.61-.61-3.68-.75-4.29a41.55,41.55,0,0,0-3.31-9.26A5.86,5.86,0,0,1,77.76,95c.05-3.48,1.62-6.26,3.36-8.89A43.58,43.58,0,0,1,97.2,71.67a29.22,29.22,0,0,1,5.94-2.26c.2-.06.44-.09.57.13s-.05.44-.17.61a16.57,16.57,0,0,1-2.76,2.93,22.52,22.52,0,0,0-3.88,4.44,8.8,8.8,0,0,0-1.37,3.6,3.75,3.75,0,0,0,.14,1.52c0,.07.1.13.1.18-.22,1.24.5,1.14,1.17,1.12a.7.7,0,0,1,.71.34c.14.31-.15.51-.3.71a30.6,30.6,0,0,1-4.1,4,10.09,10.09,0,0,0-2.45,2.87,4,4,0,0,0,0,3.4A1.1,1.1,0,0,0,92.1,96a19.81,19.81,0,0,1-1.63,2.94,33.64,33.64,0,0,0-2.78,4.59c-.75,1.64-1.71,3.14-2.47,4.78A61.31,61.31,0,0,0,82.52,114.77Z"/><path class="cls-4" d="M22.27,150.05a5.19,5.19,0,0,1,1.88.57c6.54,2.57,13.29,2.89,20.08,2.35,6.58-.52,12.73-2.89,18.62-6.28a48.34,48.34,0,0,0,13-11,21.8,21.8,0,0,0,1.56-1.79,16,16,0,0,0,2-2.83,2.56,2.56,0,0,1,.55-1.19c-.36,1.83-.74,3.56-1.23,5.25a48.39,48.39,0,0,1-3.49,9A34.29,34.29,0,0,1,70,151.7a.72.72,0,0,1-.57.2,13.55,13.55,0,0,0-5,1.15,28.63,28.63,0,0,0-5,2.93c-1,.69-8.53,2.07-10.7,2-1.51,0-3,.39-4.53.42a29.44,29.44,0,0,1-5.58-.35c-2.93-.5-5.93-1-8.58-2.64-1.71-1.09-3.66-1.68-5.18-3.16C24.07,151.46,23.15,150.82,22.27,150.05Z"/><path class="cls-4" d="M65.77,55.77c-.91-1-3.36-3.35-4.34-4.25a1.06,1.06,0,0,1-.29-.73c-.71-4.82-.61-9.7-.76-14.57-.09-2.75-.5-8.2-.1-8.43,1-.6,3.37-.83,4.5-1.08a29.87,29.87,0,0,1,7.42,0c1.25.34,1,3.71.93,4.37-.07,2.06-.44,4.1-.5,6.15a21.06,21.06,0,0,1-1.06,4.41C70.32,46.93,66.42,56.48,65.77,55.77Z"/><path class="cls-4" d="M4.19,166c1.2-1.7,3.51-5.36,5.14-5.57.25-.13.43,0,.35-.39a.68.68,0,0,0-.66-.61,3.21,3.21,0,0,0-2.16.9,18.87,18.87,0,0,0-4.31,4.62c-.11.17-.19.42-.47.37-.49-.1-.61-.41-.3-.88a19.56,19.56,0,0,1,11-8.29,37.38,37.38,0,0,1,10.88-1.38,1.72,1.72,0,0,1,1,.47,31.82,31.82,0,0,0,11.42,5.24c.9.22,1.81.4,2.72.54.34.05.49.2.59.57a5.82,5.82,0,0,1,.07,1.9.7.7,0,0,1-.36.54c-.86.59-1.73,1.16-2.61,1.74-.23.15-.48.07-.73.09-4.8.35-9.59,0-14.39,0-4.37,0-8.73.23-13.1.38A19.67,19.67,0,0,1,4.19,166Z"/><path class="cls-4" d="M14.64,48.72a9,9,0,0,0,2.17,4.76,1.33,1.33,0,0,0,1.42.45c.38-.1.43.08.48.37A21.82,21.82,0,0,0,23.1,67.21a8,8,0,0,0,1.45,1.19c.17.14.4.26.07.49-1.89,1.38-3.84,2.53-6.19,2.35-.47,0-.7-.4-1-.63a11.57,11.57,0,0,1-3.79-4c-1.48-2.77-3.08-5.5-3.55-8.83-.1-.71-.71-5.75,2.39-8.37.7-.6,1.22-1.47,2-2,.31,0,.18.31.2.48A6.2,6.2,0,0,0,14.64,48.72Z"/><path class="cls-3" d="M42.63,84.24c3.41-1.44,6-2.51,9.32-3.82,3.72-1.48,7.47-2.85,11.24-4.13a3.68,3.68,0,0,1,1.93.05c.65,1.71,1.66,3.28,2.24,5.12A50.38,50.38,0,0,0,60,86.66a3.29,3.29,0,0,1-3.79,1c-2.64-.77-5.32-1.37-7.95-2.22C47.17,85,43.12,84.49,42.63,84.24Z"/><path class="cls-5" d="M48.78,2.08c.26,1,0,4.55-1.75,5.73a35.48,35.48,0,0,1-12.82,4.68,1.79,1.79,0,0,1-.9.09,11.11,11.11,0,0,0,.86-4.44,10.32,10.32,0,0,0-1.46,2.7,5.36,5.36,0,0,1-2.1,2.38c-.06,0-.16.1-.22.07a2.67,2.67,0,0,1-.25-2,5.47,5.47,0,0,0,1.06-2,1.16,1.16,0,0,0-.74-1.52,2.28,2.28,0,0,0-1.51,0,2.23,2.23,0,0,0-1.37,2.85c.1.36.3.73.66.77.68.08.81.63.9,1.25,0,.14.06.27.1.41a3.15,3.15,0,0,1-1.88-1.41A33.25,33.25,0,0,0,25.24,7.7c-.41-.57-.28-.85.3-1.13a14.18,14.18,0,0,1,4.37-.92c2.34-.32,4.67-.69,7-1.07,2.65-.43,5.31-.79,7.94-1.4C46,2.92,48.08,2.16,48.78,2.08Z"/><path class="cls-4" d="M73.15,165.95a20.39,20.39,0,0,0,.34-7.88c0-.07,0-.15,0-.21-.19-.39-.21-1-.75-1s-.4.59-.49,1c.18,3.67-.12,6.27-1.08,8,0,.27-.16.28-.33.29a46,46,0,0,1-4.92.28c-.36,0-.52-.16-.68-.54a26.59,26.59,0,0,1-1.38-5.68,13.27,13.27,0,0,1,.25-2c.12-1.41-.6-1.06-1.11-.75a12.54,12.54,0,0,0,.19,8.79c-.62-.06-1.18-.11-1.73-.18a13.07,13.07,0,0,0-2.88-.19c-.45,0-1.22.09-1.27-.42-.48-4.36,5.38-10.91,10.49-10.66,1.59.08,3.21-.2,4.74.68,2.12,1.22,4,2.72,4.7,5.48.81,3.06-.72,4.79-2,4.78C74.58,165.78,73.9,165.88,73.15,165.95Z"/><path class="cls-6" d="M69.49,85.33a3.79,3.79,0,0,1-.25.31c-1.69,1.69-7.16,7-8.25,7.94s-1.83.35-2.71.1C53.7,92.4,49.12,91,44.54,89.74a43.78,43.78,0,0,0-6.44-1.38,2.38,2.38,0,0,1-.71-.2,1,1,0,0,1-.57-.77c0-.27.34-.26.53-.37l.61-.35c.85-.51,1.68-1.14,2.67-.74.57.23,16.71,3.77,17.71,4.22.19.08.32,0,.45-.14,2.69-2.07,5.37-4.15,8-6.38a4.73,4.73,0,0,0,.76-.71c.29-.39.45-.3.66.08.35.64.74,1.25,1.11,1.88C69.35,85,69.41,85.17,69.49,85.33Z"/><path class="cls-4" d="M9.8,49.1c-.53-1-1.08-1.85-1.65-2.72a6.86,6.86,0,0,1-.74-2.48c.06-1.83.46-3.61.63-5.42.24-2.69,1.44-8.88,2-9.2.73-.47,8.17-2.06,9-1.83a32.13,32.13,0,0,1-3.83,5.19,1.6,1.6,0,0,0-.45.74c-1.51,4.68-3,9.38-4.15,14.19A3.53,3.53,0,0,1,9.8,49.1Z"/><path class="cls-6" d="M30.37,85.33c.21,0,.14.62,0,.93a1.28,1.28,0,0,1-.91.78c-2.63,1-5.29,1.83-7.89,2.92-2,.86-4.18,1.27-6.25,2a4.5,4.5,0,0,1-2.44-.2c-.14-.44,1.78-3,2.53-3.67C18,87.83,27,84.89,30.37,85.33Z"/><path class="cls-7" d="M34.48,100.66A6.46,6.46,0,0,1,30.87,103c-2.19.48-4-.92-4.75-3.5a12.4,12.4,0,0,1-.33-4.1A1.59,1.59,0,0,0,27,96.66a2.31,2.31,0,0,0,1.5-.16c.16-.07.35-.19.32-.38s-.25-.2-.41-.19c-.41,0-.81.12-1.22.13s-.73-.07-.77-.6.35-.51.66-.6c.65-.2,1.3.21,2,0-.37-.3-.29-.6-.16-1a3.33,3.33,0,0,1,1.85-2.11c.17.51-.11,1,.06,1.6a22,22,0,0,1,1-3.3,4.78,4.78,0,0,1-.12,1.76,3.86,3.86,0,0,0-.08,1.67c.37-.16.28-.58.47-.81.91,1.14,1.2,1.6.88,2.06.56.76,1.34-.16,2,.37-.38.52-.89.41-1.35.49a2.62,2.62,0,0,1-.43,0c-.19,0-.48-.15-.52.14s.28.26.44.37a.58.58,0,0,1,.13.28c0,1.08-.91,2.78-1.88,2.71a1.14,1.14,0,0,0,.87,0,.7.7,0,0,1,1,.36C33.54,100,34.19,100.1,34.48,100.66Z"/><path class="cls-8" d="M28.23,15c.86.56,2.45.12,3.13-.29a4.75,4.75,0,0,1,2.16-.33,31.94,31.94,0,0,0,13-4.13c.12-.07,1.46-.8,1.63-.87a8.1,8.1,0,0,1-.31,2,7.43,7.43,0,0,1-1.53,1.07,49.38,49.38,0,0,1-9.82,4.15,24.81,24.81,0,0,1-7,.62C29,17.14,28.32,15.49,28.23,15Z"/><path class="cls-3" d="M28.28,83.77c-3.7.8-7.78,1.05-11.68,2.82l-.08-.15c.44-.65.88-1.3,1.34-1.94a47.33,47.33,0,0,0,3.69-5.77c.12-.23.17-.32.4-.17a58.69,58.69,0,0,1,6.3,5S28.26,83.69,28.28,83.77Z"/><path class="cls-7" d="M33.18,96.4l0-.3a3.67,3.67,0,0,0,1.7-.21c.36-.19.76-.44.65-1s-.49-.5-.84-.54-.4-.1-.6-.12-.29-.29-.38-.49.08-.37.22-.5A7.21,7.21,0,0,0,35.1,92c.26-.39.57-.84.23-1.34s-.78-.2-1.15,0A4.82,4.82,0,0,0,33,91.77c-.1.11-.12.41-.36.24a.52.52,0,0,1-.26-.63,4.39,4.39,0,0,0,.07-1.48c0-.25-.07-.57-.31-.63s-.41.14-.56.35A4.15,4.15,0,0,0,31,91.16c0,.13,0,.36-.18.29a1.2,1.2,0,0,0-1.11.18c-.23.12-.25-.17-.32-.32a4.69,4.69,0,0,0-1.22-1.75,2.92,2.92,0,0,1,1-.55,7.46,7.46,0,0,1,6.58.41,1.54,1.54,0,0,1,.74.8,9.25,9.25,0,0,1,.07,6.87,12.33,12.33,0,0,1-1.78,3.3c-.27-.08-.19-.32-.17-.51A2,2,0,0,0,34,98.25,1.85,1.85,0,0,1,33.48,97,.66.66,0,0,0,33.18,96.4Z"/><path class="cls-3" d="M5.64,103.9l-.5,3.55c-.08.53-.68,5.57-.58,6.51.07.66-.15.81-.66.5a1.17,1.17,0,0,1-.48-.53,10.62,10.62,0,0,1-.84-4.36c.08-1.92,1.16-3.06,2.07-4.37C5,104.76,5.29,104.35,5.64,103.9Z"/><path class="cls-4" d="M6.26,126.3a74.26,74.26,0,0,0,2.37,7.06C5.74,132.59,4.65,130.38,6.26,126.3Z"/><path class="cls-9" d="M28.78,70.39c.43,0,1.3.68,1.33,1.18a6.48,6.48,0,0,1-.19,3,1.49,1.49,0,0,1-1.54.89,1,1,0,0,1-1.15-.9C27,71.36,28.53,70.37,28.78,70.39Z"/><path class="cls-10" d="M25.91,95a9.3,9.3,0,0,1,1.54-4.66c.25.62.23,1.45.7,1.83.79.64.06,1.37.23,2,0,.17-.18.12-.29.11a5.59,5.59,0,0,0-1.22,0A1.05,1.05,0,0,0,25.91,95Z"/><path class="cls-11" d="M33.18,96.4c.51-.28.47.28.45.5a1.44,1.44,0,0,0,.5,1.19,2,2,0,0,1,.55,2c0,.12,0,.23.08.3l-.28.25A2.6,2.6,0,0,1,33,99.42c-.19-.32-.37-.33-.65-.17a1.09,1.09,0,0,1-1.15-.06c.49-.45,1.38-.51,1.41-1.15S33.49,97.12,33.18,96.4Z"/><path class="cls-12" d="M21.7,46.1a1.38,1.38,0,0,1,1.37,1.5,2.91,2.91,0,0,1-.74,2.29c-.19.16-.41.38-.6-.1-.35-.89-.94-.87-1.62-.48-.23.13-.46.63-.78.1s-.48-.53-.08-1.39A3.16,3.16,0,0,1,21.7,46.1Z"/><path class="cls-13" d="M42.63,1.47c-1.65.29-7.49,1.28-9.14,1.58A34,34,0,0,0,27,4.79,7.92,7.92,0,0,0,25.05,6c-.11.09-.21.54-.45.12s.08-.43.25-.56A12.65,12.65,0,0,1,28.23,3.7c2.86-1,10-1.94,13-2.21A2.8,2.8,0,0,1,42.63,1.47Z"/><path class="cls-13" d="M40.48,17c-.11.83-10.41,3.71-10.64,1.37.81-.17,5.74-.32,6.56-.41a19.28,19.28,0,0,0,4-1.09C40.48,16.81,40.5,16.88,40.48,17Z"/><path class="cls-14" d="M33.42,93.05c-.16-.05-.21-.25-.31-.39s0-.26.05-.36A8.15,8.15,0,0,1,34.77,91c.17-.11.28-.07.31.15C35.13,91.55,33.77,93.09,33.42,93.05Z"/><path class="cls-15" d="M28,90.27a3.33,3.33,0,0,1,1.15,1.61c.08.21-.08.29-.18.4s-.26,0-.35-.1A4.34,4.34,0,0,1,28,90.27Z"/><path class="cls-16" d="M29.86,9.51c-.34.26-.63.44-1,.18-.11-.09,0-.29,0-.37C29.3,9,29.53,9.41,29.86,9.51Z"/><path class="cls-2" d="M64.62,102.85c.49-.22.77.13,1,.37a5.87,5.87,0,0,1,1.86,6.35c-.54,1.56-1.14,3.08-1.8,4.57a6.19,6.19,0,0,0-.5,1.75c-.08.71.06.83.62.58.21-.09.41-.22.62-.32a3,3,0,0,1,2.68,0c.54.27.71,0,.95-.53,1.2-2.64,2-5.49,3.18-8.13a2.21,2.21,0,0,1,.22-.43c1.11-1.48.85-3.08.27-4.67-.31-.85-.71-1.66-1.08-2.47a1.8,1.8,0,0,0-.35-.49,4.87,4.87,0,0,1-.6-4.63c.15-.29.33-.51.62-.5s.53.26.62.6c.24.88.75,1.62,1,2.49.14.45.5.68.77,1,1.23,1.49,1.69,3.4,2.33,5.24a3.28,3.28,0,0,1-.62,3.36,27.3,27.3,0,0,0-1.85,3.61,16.64,16.64,0,0,0-1.84,4.39c-.23,1.23-1,2.21-1.31,3.43a24.07,24.07,0,0,0-.37,2.64,2.75,2.75,0,0,0,1.25,2.45c.55.5,1.29.75,1.62,1.58a3.29,3.29,0,0,1,.28,1.9A7.35,7.35,0,0,1,71,132a2.91,2.91,0,0,1-2.46.66c-1.82-.23-5.48-5.15-6-7.14a14.47,14.47,0,0,1-.14-4.5c.22-3.39,1.41-6.49,2.33-9.66a30.69,30.69,0,0,0,.69-3.34,1.14,1.14,0,0,0-.09-.76A4,4,0,0,1,65,105,7.36,7.36,0,0,0,64.62,102.85Z"/><path class="cls-2" d="M29.68,38.29c-.11.42.08.85,0,1.33-.29-.24-.63,0-.91-.79a9.73,9.73,0,0,1,1.78-6.27c1.45-2.39,4-3.44,5.7-2.78a6.35,6.35,0,0,1,3.62,3.31c.94,2.33.51,8.9.19,9a1.7,1.7,0,0,1-.95-1.4c.3-4-.08-8.48-4.16-9.06C31.43,31.17,29.57,38.44,29.68,38.29Z"/><path class="cls-2" d="M17.16,40.88c0,.16-.24.68-.41.52s-.45-.76-.16-2.92c.89-6.55,6.87-9.32,8.54-5.5.62,1.38-1,7.38-1.57,6.89-.41-2.19,1.78-5.75-.74-6.64-4.6,0-4.69,3.37-5.49,6A5.64,5.64,0,0,0,17.16,40.88Z"/><path class="cls-5" d="M29.49,38.29c.43-2.32,2.56-6.07,4.35-6.54a3.8,3.8,0,0,1,4.47,1.93c.77,1.45.88,4.71.87,7C39.68,40.52,30.39,46.51,29.49,38.29Z"/><path class="cls-5" d="M17.24,40c-.37-3.18,2.68-8.48,5.74-6.76,1.39.78,1.45,1.69.59,6.66C23.26,41.66,17.82,45,17.24,40Z"/><path class="cls-2" d="M40.65,51.52c-.07.36-.24.52-.5.46s-.59-.24-.5-.71.1-.71.5-.64S40.48,51.25,40.65,51.52Z"/><path class="cls-2" d="M38.54,54.68a.31.31,0,0,1,.25.42c-.07.29-.06.72-.46.73-.23,0-.33-.19-.3-.43S38.11,54.72,38.54,54.68Z"/><path class="cls-2" d="M40.52,60a.42.42,0,0,1-.41-.45c0-.26.14-.45.38-.45a.4.4,0,0,1,.4.43A.46.46,0,0,1,40.52,60Z"/><path class="cls-11" d="M29.64,101.52a3.44,3.44,0,0,0,.45-1.79,4.23,4.23,0,0,1,.11-1.26c0-.11.07-.23.19-.23s.18.11.18.24a5.57,5.57,0,0,1-.45,3.15c-.12.21-.28.36-.51.29s-.25-.33-.26-.57a8.26,8.26,0,0,1,.13-1.55.5.5,0,0,0-.32-.63c-.33-.15-.39.07-.51.28a4,4,0,0,1-.82,1.14c-.22.19-.47.42-.77.19s-.28-.57-.21-.94a3.25,3.25,0,0,1,.6-1.3c.33-.47.83-.81.47-1.66.8.43.8,1.85,1.94,1.66A29.85,29.85,0,0,0,29.64,101.52Z"/><path class="cls-11" d="M30.65,97.08a1.31,1.31,0,0,1-1.36-1.29c0-.87.63-1.7,1.28-1.71,1.12,0,1.45.24,1.45,1.12C32,96.29,31.45,97.08,30.65,97.08Z"/><path class="cls-15" d="M34.32,100.24c-.37-.45-.74-.92-1.12-1.36-.15-.17-.07-.29,0-.42s.21-.07.31,0A1.84,1.84,0,0,1,34.32,100.24Z"/><path class="cls-4" d="M69.7,126.16a1.86,1.86,0,0,1-.92,0,1.27,1.27,0,0,1-.72-1.24,2.51,2.51,0,0,1,1.3-1.81c.23-.07.16,0,.12-.18s-.36-.21-.58-.16c-.56.13-2-.33-1.78-.46a8.87,8.87,0,0,1,1.72-.52.41.41,0,0,0,.22-.71c-.34-.31-.22-.56-.16-.92s.21-.81-.17-1.09a2.65,2.65,0,0,0-3.06.25,6.18,6.18,0,0,0-1.76,3.76,5,5,0,0,0,.41,2.88,12.18,12.18,0,0,0,3.22,4c.55.46,1.17,1.15,1.84,1a3.46,3.46,0,0,0,2-1.08,6.17,6.17,0,0,0,1.34-4.26.52.52,0,0,0-.18-.42s-.72-.62-1-.59C71,124.68,70.22,125.89,69.7,126.16Z"/><path class="cls-17" d="M69.29,125.48c-.52,0-.56-.24-.6-.58s.7-1.92,1.82-1.33c.41.22.28.73-.07,1.07S69.76,125.55,69.29,125.48Z"/><path class="cls-15" d="M27.2,100.4a3.27,3.27,0,0,1,.86-2.06c.09-.12.19-.19.3,0a.37.37,0,0,1,0,.44A4.74,4.74,0,0,1,27.2,100.4Z"/><path class="cls-18" d="M31,94.64c.31.06.69,0,.62.65s-.53,1.13-1,1.05-.66-.15-.64-.68A1,1,0,0,1,31,94.64Z"/><path class="cls-2" d="M71.45,126.13c-.16-.67-.71-.87-1.17-.51a.92.92,0,0,0-.39.5c-.16.35,0,.57.19.87a.83.83,0,0,0,1,0C71.22,126.81,71.54,126.51,71.45,126.13Zm-.82.72a.55.55,0,0,1-.4-.18.52.52,0,0,1,.22-.74c.23-.18.61-.18.69.15A.63.63,0,0,1,70.63,126.85Z"/><path class="cls-2" d="M73.12,125.37c-.2-.82-.87-1.07-1.45-.63a1.14,1.14,0,0,0-.49.62c-.19.43,0,.71.24,1.08a1,1,0,0,0,1.2,0C72.84,126.22,73.23,125.85,73.12,125.37Zm-1,.89a.68.68,0,0,1-.49-.22.64.64,0,0,1,.27-.91c.29-.22.76-.22.86.19A.77.77,0,0,1,72.11,126.26Z"/></g><g id="Auge_R"><ellipse class="cls-19" cx="19.69" cy="37.47" rx="2.79" ry="3.23"/><ellipse class="cls-20" cx="19.37" cy="36.38" rx="1.11" ry="1.29"/></g><g id="Auge_L"><ellipse class="cls-19" cx="32.09" cy="36.34" rx="2.79" ry="3.23"/><ellipse class="cls-20" cx="31.72" cy="35.18" rx="1.11" ry="1.29"/></g></g></g></svg>