<?xml version="1.0" encoding="utf-8"?>
<!-- Generator: Adobe Illustrator 20.1.0, SVG Export Plug-In . SVG Version: 6.00 Build 0)  -->
<svg version="1.1" id="Layer_1" xmlns="http://www.w3.org/2000/svg" xmlns:xlink="http://www.w3.org/1999/xlink" x="0px" y="0px"
	 viewBox="0 0 841.9 595.3" style="enable-background:new 0 0 841.9 595.3;" xml:space="preserve">
<style type="text/css">
	.st0{fill:#233269;}
	.st1{fill:#F47422;}
	.st2{fill-rule:evenodd;clip-rule:evenodd;fill:#F47422;}
</style>
<g>
	<path class="st0" d="M134.2,254h14.9v81.7h-14.9v-36.2H98.8v36.2H83.9V254h14.9v32.7h35.5V254z"/>
	<path class="st0" d="M223.8,304.8c0,4.9-0.7,9.3-2.1,13.3c-1.4,4-3.4,7.4-6,10.3c-2.6,2.8-5.7,5-9.4,6.6c-3.7,1.6-7.7,2.4-12.1,2.4
		c-4.4,0-8.4-0.8-12-2.4c-3.6-1.6-6.7-3.8-9.3-6.6c-2.6-2.8-4.6-6.2-6.1-10.3c-1.5-4-2.2-8.5-2.2-13.3c0-4.9,0.7-9.3,2.2-13.3
		c1.4-4,3.5-7.4,6.1-10.2c2.6-2.8,5.8-5,9.4-6.5c3.6-1.5,7.6-2.3,11.9-2.3c4.3,0,8.3,0.8,12,2.3c3.7,1.5,6.8,3.7,9.4,6.5
		c2.6,2.8,4.6,6.2,6.1,10.2C223,295.5,223.8,299.9,223.8,304.8z M209.1,304.8c0-6.1-1.3-11-4-14.6c-2.6-3.6-6.3-5.4-11-5.4
		c-4.7,0-8.4,1.8-11,5.4c-2.6,3.6-3.9,8.4-3.9,14.6c0,6.2,1.3,11.1,3.9,14.7c2.6,3.6,6.3,5.4,11,5.4c4.7,0,8.4-1.8,11-5.4
		C207.8,315.9,209.1,311,209.1,304.8z"/>
	<path class="st0" d="M253.9,325.5c3.8,0,6.5-0.5,8.3-1.4c1.7-0.9,2.6-2.5,2.6-4.7c0-2-0.9-3.7-2.8-5.1c-1.9-1.3-4.9-2.8-9.1-4.4
		c-2.6-0.9-5-1.9-7.1-3c-2.2-1.1-4-2.3-5.6-3.7c-1.6-1.4-2.8-3.1-3.7-5.1c-0.9-2-1.4-4.5-1.4-7.4c0-5.7,2.1-10.1,6.3-13.4
		c4.2-3.3,9.8-4.9,17-4.9c3.6,0,7.1,0.3,10.4,1c3.3,0.7,5.8,1.3,7.4,1.9l-2.6,11.6c-1.6-0.7-3.6-1.4-6-1.9c-2.4-0.6-5.3-0.9-8.5-0.9
		c-2.9,0-5.3,0.5-7.1,1.5c-1.8,1-2.7,2.5-2.7,4.5c0,1,0.2,1.9,0.5,2.7c0.4,0.8,1,1.5,1.8,2.2c0.9,0.7,2,1.3,3.4,2
		c1.4,0.7,3.1,1.4,5.2,2.1c3.4,1.3,6.3,2.5,8.6,3.7c2.3,1.2,4.3,2.6,5.8,4.1c1.5,1.5,2.7,3.3,3.4,5.2c0.7,2,1.1,4.3,1.1,7.1
		c0,5.9-2.2,10.4-6.5,13.4c-4.4,3-10.6,4.5-18.7,4.5c-5.4,0-9.8-0.5-13.1-1.4c-3.3-0.9-5.6-1.6-7-2.2l2.5-11.9
		c2.1,0.9,4.7,1.7,7.6,2.5C246.8,325.1,250.2,325.5,253.9,325.5z"/>
	<path class="st0" d="M291.7,257.8l14.3-2.4V274h21.9v11.9H306v25.1c0,5,0.8,8.5,2.4,10.6c1.6,2.1,4.2,3.2,8,3.2
		c2.6,0,4.9-0.3,6.9-0.8c2-0.5,3.6-1.1,4.8-1.5l2.4,11.3c-1.7,0.7-3.8,1.4-6.5,2.2c-2.7,0.7-5.8,1.1-9.4,1.1c-4.4,0-8.1-0.6-11-1.8
		c-2.9-1.2-5.3-2.9-7-5.1c-1.7-2.2-2.9-5-3.7-8.1c-0.7-3.2-1.1-6.8-1.1-10.9V257.8z"/>
</g>
<g>
	<path class="st0" d="M564,253.2c11.9,0,21,2.2,27.3,6.5c6.3,4.3,9.5,11.1,9.5,20.3c0,4.8-0.8,8.9-2.5,12.3
		c-1.7,3.4-4.2,6.2-7.4,8.4c-3.2,2.2-7.2,3.8-11.8,4.8c-4.6,1-9.9,1.5-15.9,1.5h-7.4v28.8h-14.9v-80.5c3.5-0.8,7.3-1.3,11.5-1.6
		C556.6,253.3,560.5,253.2,564,253.2z M565.1,266c-3.8,0-6.9,0.1-9.3,0.4v27.8h7.2c7.2,0,12.7-1,16.5-3c3.8-2,5.8-5.8,5.8-11.4
		c0-2.7-0.5-4.9-1.5-6.7c-1-1.8-2.4-3.2-4.2-4.2c-1.8-1-4-1.7-6.4-2.2C570.6,266.2,567.9,266,565.1,266z"/>
	<path class="st0" d="M635.1,336.9c-4.2-0.1-7.8-0.6-10.6-1.4c-2.8-0.9-5-2.1-6.7-3.7c-1.6-1.6-2.8-3.6-3.5-6c-0.7-2.4-1-5.1-1-8.2
		v-71l14.3-2.4v70.6c0,1.7,0.1,3.2,0.4,4.4c0.3,1.2,0.8,2.2,1.5,3c0.7,0.8,1.7,1.5,2.9,1.9c1.2,0.4,2.8,0.8,4.7,1L635.1,336.9z"/>
	<path class="st0" d="M699.3,333.8c-2.8,0.7-6.3,1.4-10.7,2.2c-4.4,0.7-9.2,1.1-14.5,1.1c-5,0-9.1-0.7-12.5-2.1
		c-3.3-1.4-6-3.4-8-5.9c-2-2.5-3.4-5.5-4.3-9c-0.9-3.5-1.3-7.3-1.3-11.5V274h14.3v32.3c0,6.6,1,11.3,2.9,14.2
		c1.9,2.8,5.3,4.2,10.1,4.2c1.7,0,3.6-0.1,5.5-0.2c1.9-0.2,3.4-0.4,4.3-0.6V274h14.3V333.8z"/>
	<path class="st0" d="M732.9,325.5c3.8,0,6.5-0.5,8.3-1.4c1.7-0.9,2.6-2.5,2.6-4.7c0-2-0.9-3.7-2.8-5.1c-1.8-1.3-4.9-2.8-9.1-4.4
		c-2.6-0.9-5-1.9-7.1-3c-2.2-1.1-4-2.3-5.6-3.7c-1.6-1.4-2.8-3.1-3.7-5.1c-0.9-2-1.4-4.5-1.4-7.4c0-5.7,2.1-10.1,6.3-13.4
		c4.2-3.3,9.8-4.9,17-4.9c3.6,0,7.1,0.3,10.4,1c3.3,0.7,5.8,1.3,7.4,1.9l-2.6,11.6c-1.6-0.7-3.6-1.4-6-1.9c-2.4-0.6-5.3-0.9-8.5-0.9
		c-2.9,0-5.3,0.5-7.1,1.5c-1.8,1-2.7,2.5-2.7,4.5c0,1,0.2,1.9,0.5,2.7c0.4,0.8,1,1.5,1.8,2.2c0.9,0.7,2,1.3,3.4,2
		c1.4,0.7,3.1,1.4,5.2,2.1c3.4,1.3,6.3,2.5,8.6,3.7c2.4,1.2,4.3,2.6,5.8,4.1c1.5,1.5,2.7,3.3,3.4,5.2c0.7,2,1.1,4.3,1.1,7.1
		c0,5.9-2.2,10.4-6.5,13.4c-4.4,3-10.6,4.5-18.7,4.5c-5.4,0-9.8-0.4-13.1-1.4c-3.3-0.9-5.6-1.6-7-2.2l2.5-11.9
		c2.1,0.9,4.7,1.7,7.6,2.5C725.7,325.1,729.1,325.5,732.9,325.5z"/>
</g>
<g>
	<path class="st1" d="M435.4,391.9l-73.4-73.4c-11.4-11.4-11.4-30,0-41.4l73.4-73.4l73.4,73.4c5.5,5.5,8.6,12.9,8.6,20.7
		c0,7.8-3,15.2-8.6,20.7L435.4,391.9z M435.4,223l-63.8,63.8c-6.1,6.1-6.1,16.1,0,22.2l63.8,63.8l63.8-63.8c3-3,4.6-6.9,4.6-11.1
		c0-4.2-1.6-8.1-4.6-11.1L435.4,223z"/>
</g>
<path class="st2" d="M448.5,259.7c0,25.5,0,50.9,0,76.4c-6,0-12.1,0-18.1,0c0-16.9,0-34,0-50.9H416v-10.5c0,0,11-11.9,14.5-15
	C436.5,259.7,442.5,259.7,448.5,259.7z"/>
</svg>
