<svg id="Ebene_1" data-name="Ebene 1" xmlns="http://www.w3.org/2000/svg" viewBox="0 0 1024 1024"><defs><style>.cls-1{fill:#f9b233;}.cls-10,.cls-2{fill:#1e323b;}.cls-3,.cls-7{fill:#108cbd;}.cls-4{fill:#3f4f58;}.cls-5{fill:#77757a;}.cls-10,.cls-11,.cls-12,.cls-13,.cls-14,.cls-15,.cls-16,.cls-17,.cls-18,.cls-19,.cls-20,.cls-21,.cls-22,.cls-5,.cls-6,.cls-7,.cls-8,.cls-9{fill-rule:evenodd;}.cls-23,.cls-6{fill:#000101;}.cls-8{fill:#de9357;}.cls-24,.cls-9{fill:#fff;}.cls-11{fill:#eba43e;}.cls-12{fill:#cc5378;}.cls-13{fill:#984640;}.cls-14{fill:#eba33e;}.cls-15{fill:#0c0700;}.cls-16{fill:#fefefe;}.cls-17{fill:#fcfcfc;}.cls-18{fill:#e8a23d;}.cls-19{fill:#e6a03d;}.cls-20{fill:#eeeeef;}.cls-21{fill:#dd9256;}.cls-22{fill:#eaa33e;}</style></defs><title>Zeichenfläche 1</title><path class="cls-1" d="M380,402.69l-10.84,18.72,14.88-15.19A8.57,8.57,0,0,1,380,402.69Z"/><path class="cls-2" d="M383.33,356.9h0c-13.1-.43-24.69-3.91-31-9.3-7.53-6.43-12.34-15.37-12.56-23.33-.13-4.51,1.27-8.39,3.93-10.94,2.34-2.23,5.82-3.34,10.06-3.2,7.61.25,17,4.46,24.53,11,10.4,9,25.63,28.54,25.06,32.13a1.45,1.45,0,0,1-.87,1.15c-4.37,1.85-11.35,2.75-19.15,2.5Zm-29.64-44.53c-3.64-.12-6.57.78-8.46,2.59-2.23,2.13-3.35,5.33-3.25,9.26.2,7.34,4.72,15.65,11.78,21.69,5.94,5.07,17,8.35,29.64,8.77h0c7.06.23,13.6-.55,17.68-2.11-1.05-3.65-13.7-20.59-24.25-29.75-7.15-6.21-16-10.21-23.15-10.44Z"/><path class="cls-2" d="M434.08,304.73c.75,1.11,2.58,1.15,4.08.11s2.1-2.78,1.35-3.89-2.58-1.15-4.09-.11S433.33,303.63,434.08,304.73Z"/><path class="cls-2" d="M419.09,300.53c1.26.42,2.75-.65,3.33-2.4s0-3.5-1.24-3.92-2.76.65-3.33,2.39S417.84,300.11,419.09,300.53Z"/><path class="cls-2" d="M418.28,299.56a2.55,2.55,0,0,1,1.69.91c-4.11,6.22-.71,18.73,1.15,24.34,3.23-17.65,13.53-21.11,13.53-21.11a2.64,2.64,0,0,1,.89,1.64c-9.52,3.16-13,20.17-13.41,22.31h0s1.1,5.38-.7,2.63C411.69,310.48,418.28,299.56,418.28,299.56Z"/><path class="cls-1" d="M392.55,364.2c-1.7.22-8.14,7-7.92,8.6,3.15,6.49,10.17,18.34,28.74,23.45,3.54-.44,8.21-5.08,8.47-9.37A40.84,40.84,0,0,1,392.55,364.2Z"/><path class="cls-2" d="M410.14,356.49c-1,.13-7.07.66-10.31,3,1.9,3.9,9.18,16.68,25.74,18.65,1.59-1.79,1.06-8.94.08-11.1C416.92,366.19,413,360.55,410.14,356.49Z"/><path class="cls-2" d="M379.79,382.35c5.2,11.72,25.64,22.62,24.65,20.47C398.39,408,373.26,408.69,379.79,382.35Z"/><path class="cls-2" d="M424,362.44c10.85,4.18,26.23.48,27.68-6.7,1.09-5.32-6.24-13.39-16.16-19.53-11.46-7.09-21.4-3.3-24,3.54S413.15,358.24,424,362.44Zm7.31-23.82c-.39-.47,3.64,5.66,7,.43.37-.48,2.4,1.62,2.4,1.62s4.48,4.4,1.51,6.28C435.45,349.92,431.31,338.62,431.31,338.62Z"/><path class="cls-3" d="M36.83,400.68c0-4.45,2.31-7.92,7.76-7.92H73.13c35,0,52.13,27.06,52.13,58.07,0,35.14-18.64,59.39-50.15,59.39H44.59c-5.44,0-7.76-3.46-7.76-7.92Zm14.52,97H72.14c27.39,0,37.62-22.93,37.62-46.85,0-24.09-10.89-45.53-38.61-45.53H51.35Z"/><path class="cls-3" d="M149.19,472c0,15,9.57,26.73,25.9,26.73,19.3,0,24.25-11.88,29.7-11.88,2.64,0,5.28,2.31,5.28,6.43,0,7.09-18,18-35.14,18-28,0-40.26-21.61-40.26-44.87,0-23.76,14.85-44.87,39.43-44.87,23.92,0,37.78,21.61,37.78,42.73,0,5.11-1.81,7.75-8.08,7.75Zm48.17-10.89c0-12.54-7.26-27.06-23.26-27.06-18-.66-24.42,13.69-24.91,27.06Z"/><path class="cls-3" d="M218.5,434.17a17.1,17.1,0,0,1-1.49-5.94,6.45,6.45,0,0,1,6.6-6.76c4.78,0,6.43,2.31,7.59,5.61l20,60.71h.33l20-60.71c1.16-3.3,2.81-5.61,7.59-5.61a6.45,6.45,0,0,1,6.6,6.76,17.13,17.13,0,0,1-1.48,5.94l-25.24,70.78c-1.49,4.29-3,6.27-7.59,6.27s-6.1-2-7.59-6.27Z"/><path class="cls-3" d="M409.89,429.22c0-4.78,2.8-7.75,7.26-7.75s7.26,3,7.26,7.75v4.29h.33c4.12-7.92,11.88-12,23.43-12,23.76,0,37.45,21.61,37.45,44.87s-13.69,44.87-37.45,44.87a28.67,28.67,0,0,1-23.43-11.88h-.33v38.77c0,4.78-2.81,7.75-7.26,7.75s-7.26-3-7.26-7.75ZM447,498.68c17.82,0,24.09-17.49,24.09-32.33S464.83,434,447,434s-24.09,17.49-24.09,32.34S429.2,498.68,447,498.68Z"/><path class="cls-3" d="M528.85,421.47c12,0,29.2,6.43,29.2,15.51,0,3.13-2.14,5.94-6.6,5.94-6.27,0-8.74-8.91-22.6-8.91-8.25,0-15.34,3.63-15.34,11.05,0,15.34,46.85,13.69,46.85,39.1,0,18.31-15.67,27.06-32,27.06-18.48,0-33-9.24-33-16.66,0-4,2.8-6.6,5.94-6.6,6.43,0,11.71,10.72,27.55,10.72,10.56,0,17-5.94,17-11.88,0-17.16-46.85-16.17-46.85-40.59C499,430,514.17,421.47,528.85,421.47Z"/><path class="cls-3" d="M382,414l-11,8.63c5.62,9,8,20.68,8,31.83,0,22.44-9.57,47.18-36,47.18s-36-24.75-36-47.18,9.57-47.18,36-47.18c10.62,0,18.51,4,24.16,10.26l7.65-11.25-.11-.11c-8.16-7.09-18.77-11.43-31.69-11.43-33.49,0-51.47,29.2-51.47,59.72s18,59.72,51.47,59.72,51.47-29.2,51.47-59.72C394.54,439.62,390.26,425.05,382,414Z"/><path class="cls-4" d="M102.69,637c-4.13,0-7.09-2.14-7.09-6.76s3-6.76,7.09-6.76H127.1c7.42,0,10.56,2.81,10.56,11.88,0,28.38-10.23,56.42-50.15,56.42C53.69,691.74,36,662.54,36,632S52.86,572.3,89.65,572.3c24.09,0,40.26,12.54,40.26,18.81A6.77,6.77,0,0,1,123,598c-7.26,0-13.2-13.2-34.32-13.2-26.4,0-37.12,24.75-37.12,47.18s10.39,47.18,37.78,47.18c22.77,0,33.82-19.47,33.82-35.31V637Z"/><path class="cls-4" d="M223.13,684.65a6.73,6.73,0,0,1-6.76,7.09,6.64,6.64,0,0,1-6.76-7.09v-6.1h-.33c-6.27,8.91-14.52,13.2-23.92,13.2-24.75,0-38.6-21.61-38.6-44.87S160.61,602,185.35,602c10.06,0,17.16,4.29,23.92,11.71h.33v-4.62c0-5.11,3.79-7.09,6.76-7.09a6.73,6.73,0,0,1,6.76,7.09Zm-37.78-5.44c17.82,0,24.09-17.49,24.09-32.33s-6.27-32.34-24.09-32.34S161.27,632,161.27,646.87,167.54,679.21,185.35,679.21Z"/><path class="cls-4" d="M246.9,584c0-4.78,2.8-7.75,7.26-7.75s7.26,3,7.26,7.75v19h5.94c4.78,0,7.26,2.31,7.26,6.27s-2.48,6.27-7.26,6.27h-5.94V684c0,4.78-2.8,7.75-7.26,7.75s-7.26-3-7.26-7.75V615.52H241c-4.78,0-7.26-2.31-7.26-6.27S236.18,603,241,603h5.94Z"/><path class="cls-4" d="M340.29,636.15c0-15.34-10.72-21.61-20.29-21.61s-20.29,6.27-20.29,21.61V684c0,4.78-2.8,7.75-7.26,7.75s-7.26-3-7.26-7.75V571.15c0-4.78,2.81-7.75,7.26-7.75s7.26,3,7.26,7.75v42.07l.33.33A30,30,0,0,1,324.28,602c13.53,0,30.52,8.58,30.52,33.33V684c0,4.78-2.81,7.75-7.26,7.75s-7.26-3-7.26-7.75Z"/><path class="cls-4" d="M383.19,652.48c0,15,9.57,26.73,25.9,26.73,19.3,0,24.25-11.88,29.7-11.88,2.64,0,5.28,2.31,5.28,6.44,0,7.09-18,18-35.14,18-28,0-40.26-21.61-40.26-44.87,0-23.76,14.85-44.87,39.43-44.87,23.92,0,37.78,21.61,37.78,42.73,0,5.11-1.81,7.75-8.08,7.75Zm48.17-10.89c0-12.54-7.26-27.06-23.26-27.06-18-.66-24.42,13.69-24.91,27.06Z"/><path class="cls-4" d="M459.75,609.75c0-4.78,2.8-7.75,7.26-7.75s7.26,3,7.26,7.75v7.42h.33C477.9,610.41,486,602,494.4,602c5.11,0,8.08,3.3,8.08,7.42s-3,6.76-9.07,7.92c-8.58,1.49-19.14,7.92-19.14,24.91V684c0,4.78-2.8,7.75-7.26,7.75s-7.26-3-7.26-7.75Z"/><path class="cls-4" d="M519,572.3a8.91,8.91,0,1,1-8.91,8.91A8.87,8.87,0,0,1,519,572.3ZM526.24,684c0,4.78-2.8,7.75-7.26,7.75s-7.26-3-7.26-7.75V609.75c0-4.78,2.81-7.75,7.26-7.75s7.26,3,7.26,7.75Z"/><path class="cls-4" d="M545.38,609.75c0-4.78,2.81-7.75,7.26-7.75s7.26,3,7.26,7.75v3.46l.33.33A30,30,0,0,1,584.48,602C598,602,615,610.57,615,635.32V684c0,4.78-2.81,7.75-7.26,7.75s-7.26-3-7.26-7.75V636.15c0-15.34-10.72-21.61-20.29-21.61s-20.29,6.27-20.29,21.61V684c0,4.78-2.8,7.75-7.26,7.75s-7.26-3-7.26-7.75Z"/><path class="cls-4" d="M706.08,684.48c0,26.07-15.84,41.9-39.59,41.9-15,0-33.65-8.58-33.65-16,0-3,1.48-6.76,6.1-6.76,6.6,0,13,10.23,28.71,10.23,18.48,0,23.92-14.52,23.92-27.06v-7.59h-.33A25.17,25.17,0,0,1,669,691.74c-24.75,0-38.6-21.61-38.6-44.87S644.22,602,669,602c9.4,0,18.48,5.77,22.27,11.05h.33v-4c0-5.11,3.79-7.09,7.75-7.09a6.73,6.73,0,0,1,6.76,7.09ZM669,679.21c17.82,0,24.09-17.49,24.09-32.33s-6.27-32.34-24.09-32.34S644.88,632,644.88,646.87,651.15,679.21,669,679.21Z"/><g id="DOG"><path class="cls-5" d="M1005.2,478.76l-.25,0v-1.67a.61.61,0,0,1,.24,0Z"/><path class="cls-6" d="M769.44,689.31c.74-.84.25-2.12.79-3a43.69,43.69,0,0,1,7.13-9.06c9.43-9.16,20.7-12.49,32.58-14,2.47-.31,4.95-.26,7.67-.34l-.59-.56a96.22,96.22,0,0,1-16.31-19.11,103.06,103.06,0,0,1-9.92-18.51c-.38-.95-.81-1.13-1.6-.85a5.93,5.93,0,0,1-4.54-.28c-5.79-2.61-8.47-8.17-7.36-15.22.61-3.84,2.46-7.07,4-10.44a2.31,2.31,0,0,0,.39-1.57c-.5-2.68-1.08-5.35-1.32-8.09a4.74,4.74,0,0,0-.72-2,59.66,59.66,0,0,0-5.16-7.55,7.18,7.18,0,0,1-1.19-2.26c-1.91-5.22-2.28-14.14,1.18-18.91,2.26-3.13,10.19-13.24,11.62-16.84a113,113,0,0,1,13.18-23.66c4.05-5.71,12.58-16.21,13.31-18,2-6.62-.06-9.77-.82-11.83-.35-1-.46-1.22-1.2-1.24-1.46,0-9.39-2.26-15.52-13.21-2.89-5.16-5.86-10.23-7.13-16.41a36,36,0,0,1,.5-18.34c.83-2.65.78-3.32-1.27-4.83-.88-.65-3.71-6.07-3.85-8.1a46.88,46.88,0,0,1,.38-8.15c.31-3,.8-5.94,1.16-8.91.75-6.2,1.16-12.47,2.87-18.46.23-.81,2.18-5.3,3.31-6.13a16,16,0,0,1,1.86-1.3c4.2-2.24,8.71-3.27,13.18-4.42,3.37-.86,6.79-1.77,10.29-1,.59.13.83-.35,1.11-.72,4.15-5.39,8.15-11,13.33-15.12.19-.15.5-.36.39-.57-.57-1-2.4-5.51-2.56-5.8-1.14-2.06-1.13-4.53-1.85-6.74a46.32,46.32,0,0,0-4.74-9.49c-1.23-2.05-1.49-1.89.4-4a23.42,23.42,0,0,1,5.77-4.39c7.36-4.35,43.23-7.5,44.41-7.25,2,.45,4.16.46,6.23.76a12.93,12.93,0,0,1,2.44.82.51.51,0,0,1,.37.58c-.07.35-2.9,22.65-3.77,25.76-.14.51,0,.81.53.75s9.39-1.61,13.81-3.76c.67-.32,1.27-.77,2-1.07a1.83,1.83,0,0,1,2.32.78c1.14,1.41,1.56,6-.87,7.82,1.13,0,2,0,3,0a2.4,2.4,0,0,1,2.4,1.07,2.8,2.8,0,0,1-.42,2.91c-.69,1.06-.46,1.59.25,2.49a86.72,86.72,0,0,1,8.9,13.3,3.45,3.45,0,0,0,2.68,1.91,33.55,33.55,0,0,0,8.17.37c2.79-.07,5.58-.11,8.37-.07,5,.07,7.78,3.47,8,9.2A104.47,104.47,0,0,1,934.34,412c-.36,1.68-.86,3.31-1.3,5a3.09,3.09,0,0,0,.05,1.93,71.61,71.61,0,0,1,3.72,30.4,66.93,66.93,0,0,1-3.49,16.13,19.46,19.46,0,0,1-1.75,3.9c-5.95,5.32-9,10.36-12.84,17.59a2.87,2.87,0,0,0-.32,1.19c-.13,3.18-1,6.3.53,9.49a136.86,136.86,0,0,0,6.81,13.12c4.48,7.27,9.45,14.13,13.44,21.88a26.17,26.17,0,0,1,1.54-10.3,66,66,0,0,1,8.55-15.71c6.43-9.24,14.49-16.25,23-22.59a65.23,65.23,0,0,1,15.55-8.7,27.78,27.78,0,0,1,9.2-1.95c1.62,0,3.22-.77,4.86-.1s3.09,1.45,3,3.87a5.35,5.35,0,0,1,.1,1.55c.23,2.69-1.21,4.48-2.61,6.2a77.19,77.19,0,0,1-7,6.94,47.94,47.94,0,0,0-6.82,8.22A23.79,23.79,0,0,0,987,503c-.49,1-.44,1.48.72,1.77,4,1,5.49,5.2,3.5,9.28-1.73,3.54-4.39,6-7.05,8.57-2.19,2.07-4.62,3.81-6.55,6.26a10.4,10.4,0,0,0-1,1.47c-.52,1-.53,1.58.5,2.24a4.57,4.57,0,0,1,1.94,4.54,16.85,16.85,0,0,1-2.31,6.55,82.79,82.79,0,0,1-6.28,9.42c-2.24,3.06-3.79,6.76-6.48,9.41a2,2,0,0,0-.36.67c-2.29,5.47-4.8,10.84-6.55,16.59a70.48,70.48,0,0,0-2.84,15.32,38.34,38.34,0,0,1-1.6,9.77c-1,2.79-1.05,5.89-1.62,8.83a122.79,122.79,0,0,1-10.81,32.79,83,83,0,0,1-8.89,13.68c-1,1.21-1,1.22.38,1.8a24.56,24.56,0,0,1,11.74,9.76c2.53,4.11,3.5,12.54,2.39,17.56-.43,2-1.4,3.66-2,5.54a2.51,2.51,0,0,1-2.73,1.66c-4.44,0-8.87,0-13.31,0s-9.14.2-13.71.39c-5.7.24-11.4.8-17.11.86-3,0-3.81-1.22-3.93-4.67a85.93,85.93,0,0,1,1.15-12.29c.26-1.5,1.33-2.74,2-4.34a9.85,9.85,0,0,0-2.63.89c-5.92,2.51-30.57,4.87-31.19,2.52a18.76,18.76,0,0,1,.52,6,8.33,8.33,0,0,1-1.84,5c-2,2.25-4.29,4-7.32,4.06-3.33.08-6.61.93-9.93,1.31a76.38,76.38,0,0,1-8.21.54c-8.83,0-17.65,0-26.48,0-5.85,0-11.69.58-17.53.76a128.13,128.13,0,0,1-14.92,0,11.67,11.67,0,0,1-6.08-2.26c-.42-.31-.91-.54-1-1.22a12.45,12.45,0,0,0-.15-2.83v-1.91"/><path class="cls-7" d="M823.84,541.12c.43,6,2.42,11.3,7.46,14.09,4.08,2.26,8.24,1.6,12.09-.82,6.42-4,10.53-10.26,12.05-18.59a25.11,25.11,0,0,0-.13-10.35c-.11-.45-.46-1-.13-1.3s.76,0,1.13.13c8.16,2.43,45.47,12.28,47.91,12.25.33,0,12.71-12,16.59-15.41,1.2-1.05,4.93-3.21,5.66-3.73.92-.65,1,.7,1.37,1.22,3.73,5.67,7.11,11.64,10.3,17.71a100.62,100.62,0,0,1,10.16,27.85c.76,3.95,1.91,7.8,2,11.9a82.69,82.69,0,0,1-1.47,19.16c-.77,3.72-1.95,8.33-3.34,10.67-5.34,9-19.11,21.53-28.66,28.54-13,9.51-26.83,16.54-42,19.76-7.15,1.51-14.36,1.6-21.59,1.46a164.44,164.44,0,0,1-33.32-4.16,48.41,48.41,0,0,1-5.36-1.79,10.62,10.62,0,0,1-3.4-2.23c-5.2-4.6-8.43-11-12-17.15a114.65,114.65,0,0,1-6.4-14c-1-2.34-2.23-4.48-3.18-6.84-1.25-3.1-1.38-6.47-2.1-9.68-.9-4-.77-8.31-2-12.19a43.85,43.85,0,0,1-1.47-15.28c.38-7.95.73-15.94,3-23.58a77.06,77.06,0,0,1,9.22-19.17c2.55,2,5.24,1.69,7.94,1,6.88-1.7,13.53-4.35,20.28-6.61a3.94,3.94,0,0,1,2.28-.47C826.3,524.36,823.48,536.07,823.84,541.12Z"/><path class="cls-8" d="M827.7,500.55a49.63,49.63,0,0,0-8.37-5.49c-1.17-.59-1-2-1.25-3A16.39,16.39,0,0,0,816,486.2a24.6,24.6,0,0,0,5.38-2c.29-.15,2.5-1.84,3.76,1,1.16,2.63,2.12,5.46,4.62,7.08,2.87,1.85,6.13,1.7,8.29-.92a5.81,5.81,0,0,0,1.25-4.8c-.25-1.54-.44-3.1-.67-4.79,2.53.68,4.84,1.75,7.29,2.22,11.61,2.22,28.07-25.6,25.47-43.23-1.46-9.93-8-18.12-15.22-20.46-.44-.14-.88-.28-1.31-.45-1.34-.54-13.2-2.14-16.42-1.72-3.41.44-6.82-.33-10.23-.2-4.67.18-9.38-.1-14,1.36-1.44.46-2.92-.38-4.46-.06a27.06,27.06,0,0,0-11.38,5.12,6.09,6.09,0,0,1-.61.36,33.51,33.51,0,0,1,1.64-5.07c3.07-8.49,4.52-12,7.7-20.95a147,147,0,0,1,13-18.6c3.5-4.24,6.89-8.6,10.69-12.5a1,1,0,0,0,.19-.22c.38-.74.32-2,1.2-2.13s1.13,1,1.82,1.44c2.88,1.75,6,2,9.12,2.17,8,.36,15.3-2.09,22.21-6.53a60.28,60.28,0,0,0,7.07-4.76c.73-.63,4.51-3.44,6.24-3.28.61.06,13.44-2.9,15.62-4.57.44-.34.54.2.59.54A2.82,2.82,0,0,1,894,353a7.46,7.46,0,0,0-2.24,2.51c-.3.73-.36,1.31.36,1.7,1.76.95,3.54,1.77,5.69,1.2-.41,1.14-1.08,1.91-1.21,3s.41,1.73,1.34,1.44c.29-.09.45-.52.82.1,3,4.81,5.71,9.77,8.37,14.81a8.49,8.49,0,0,1,.36,1c-1.48.35-2.93.06-4.34.35-1,.2-1.93.6-2.92.73-.5.06-.64.54-.85.93a15.24,15.24,0,0,0-1.51,5.38c-1,7.73-.85,15.51-.76,23.28s-.06,15.46,1,23.11c.49,3.44,1,6.9,3.09,9.68.86,1.15,7.74,5.91,9.94,7.5,1.11.8,5.89,3.94,7,3.25a8.45,8.45,0,0,0,2.79-3.78c3.4-7.34,6.16-15,9-22.66.22-.57.45-1.14.77-2a52.27,52.27,0,0,1,1.7,8.12,62.66,62.66,0,0,1-3.74,33.61c-.38,1-1.21,1.42-1.72,2.23a92.62,92.62,0,0,1-5.72,8c-1.25,1.59-5.05,7.07-5.39,8.39a3,3,0,0,1-1.89,2c-5.77,3-12,4.45-17.93,6.85s-12,5-18,7.29c-7.87,2.92-15.36,7-23.25,9.86-4.29,1.54-9.55,3.9-14,.34C838.3,509.2,829.43,501.91,827.7,500.55Z"/><path class="cls-8" d="M865.37,451.88a43.59,43.59,0,0,1-8.9,20.72c-1.1,1.47-2.41,2.74-3.59,4.14-2.63,3.1-5.77,3.61-9.26,2.52a38.3,38.3,0,0,1-6-2.57,5.33,5.33,0,0,0-3.32-.65,4.62,4.62,0,0,1-3.08-.49c-4.14-2.44-7.85-5.25-10.41-10.15-2.36-4.53-4.49-9.22-5.28-14.31-.25-1.61-1.46-7.54-1-8.39.35-.67,2.08-.6,2.6-1.07,2.95-2.69,4.87-6.27,6.87-9.86a28.36,28.36,0,0,1,8.52-9,2.12,2.12,0,0,1,1.42-.51c4.29.39,8.62,0,12.89.69,12.46,2.4,13.92,7.59,15.66,10.42C864.82,437.11,866.32,444.7,865.37,451.88Z"/><path class="cls-8" d="M953.12,578.17c-.44-2.5-.39-5-.9-7.5-.28-1.36-1.35-8.2-1.68-9.55a92.48,92.48,0,0,0-7.37-20.61c-1-2-.69-4.28-.65-6.42.12-7.76,3.61-13.92,7.48-19.78,9.46-14.35,21.8-24.48,35.8-32.07a65,65,0,0,1,13.22-5c.45-.13,1-.2,1.26.3s-.12,1-.38,1.37c-1.71,2.6-4,4.49-6.15,6.51a50.12,50.12,0,0,0-8.65,9.88,19.59,19.59,0,0,0-3.05,8,8.35,8.35,0,0,0,.31,3.38c0,.14.23.28.21.39-.5,2.76,1.1,2.53,2.61,2.5a1.56,1.56,0,0,1,1.57.75c.31.68-.33,1.14-.67,1.58-2.68,3.45-6,6-9.13,8.82a22.46,22.46,0,0,0-5.45,6.39,9,9,0,0,0-.06,7.58,2.45,2.45,0,0,0,3,1.69,44.1,44.1,0,0,1-3.62,6.55,74.87,74.87,0,0,0-6.19,10.22c-1.68,3.64-3.81,7-5.5,10.65A136.46,136.46,0,0,0,953.12,578.17Z"/><path class="cls-8" d="M819,656.71a11.55,11.55,0,0,1,4.19,1.26c14.56,5.72,29.59,6.44,44.7,5.24,14.64-1.16,28.34-6.44,41.44-14a107.6,107.6,0,0,0,29-24.42,48.53,48.53,0,0,0,3.46-4c.61-.91,4.08-4.61,4.55-6.31a5.71,5.71,0,0,1,1.21-2.64c-.81,4.08-1.66,7.92-2.73,11.68a107.71,107.71,0,0,1-7.76,20,76.33,76.33,0,0,1-11.93,16.83,1.6,1.6,0,0,1-1.26.46,30.16,30.16,0,0,0-11.07,2.56,63.73,63.73,0,0,0-11,6.52c-2.2,1.54-19,4.62-23.81,4.49-3.37-.09-6.69.86-10.08.93a65.54,65.54,0,0,1-12.42-.79c-6.52-1.12-13.21-2.12-19.11-5.87-3.82-2.43-8.16-3.73-11.54-7C823,659.85,821,658.41,819,656.71Z"/><path class="cls-8" d="M915.83,446.84c-2-2.2-7.48-7.46-9.66-9.46a2.37,2.37,0,0,1-.65-1.63c-1.57-10.74-1.35-21.6-1.7-32.43-.2-6.12-1.11-18.25-.23-18.76,2.29-1.34,7.51-1.84,10-2.4,1.88-.42,13-.89,16.51.07,2.79.75,2.12,8.26,2.07,9.73-.16,4.6-1,9.13-1.11,13.7-.1,3.6-1.6,6.54-2.37,9.81C926,427.17,917.29,448.42,915.83,446.84Z"/><path class="cls-8" d="M778.76,692.16c2.68-3.78,7.82-11.93,11.44-12.4.56-.28,1-.09.78-.87a1.52,1.52,0,0,0-1.47-1.35c-1.87-.14-3.39.91-4.8,2a42,42,0,0,0-9.59,10.28c-.25.37-.43.94-1.05.81-1.09-.23-1.36-.91-.67-2a43.53,43.53,0,0,1,24.48-18.44c8-2.43,16-3,24.21-3.08a3.83,3.83,0,0,1,2.24,1.05,70.83,70.83,0,0,0,25.42,11.67c2,.48,4,.89,6.06,1.2.77.12,1.1.44,1.31,1.27a13,13,0,0,1,.17,4.24,1.56,1.56,0,0,1-.8,1.21c-1.92,1.31-3.86,2.59-5.8,3.87-.5.33-1.08.16-1.62.2-10.68.77-21.36-.05-32,0-9.73,0-19.44.52-29.16.84A43.77,43.77,0,0,1,778.76,692.16Z"/><path class="cls-8" d="M802,431.15c.42,4.25,2.41,7.57,4.82,10.6a3,3,0,0,0,3.17,1c.85-.22,1,.19,1.06.83.45,3.11-.41,15.08,9.77,28.73.87,1.17,2.17,1.74,3.23,2.64.37.32.88.58.16,1.1-4.22,3.07-8.56,5.64-13.79,5.24-1.06-.08-1.56-.89-2.3-1.41a25.75,25.75,0,0,1-8.44-8.86c-3.29-6.16-6.86-12.25-7.9-19.66-.22-1.58-1.57-12.79,5.32-18.63,1.56-1.33,2.71-3.28,4.38-4.53.69.06.39.68.43,1.07A13.8,13.8,0,0,0,802,431.15Z"/><path class="cls-7" d="M864.32,510.21c7.59-3.2,13.46-5.59,20.74-8.5,8.27-3.3,16.62-6.35,25-9.2a8.2,8.2,0,0,1,4.3.11c1.45,3.82,3.7,7.3,5,11.41-3.63,1.66-15,10.14-16.28,11.57-2.45,2.75-5.1,3.08-8.45,2.11-5.88-1.7-11.84-3.06-17.69-4.94C874.44,512,865.42,510.77,864.32,510.21Z"/><path class="cls-9" d="M878,327.33c.59,2.27.08,10.12-3.91,12.76-9,5.59-18.56,8.64-28.53,10.41a4,4,0,0,1-2,.19,24.73,24.73,0,0,0,1.91-9.88,23,23,0,0,0-3.26,6,11.93,11.93,0,0,1-4.68,5.3c-.14.1-.35.21-.48.16-.63-.26-1.05-3.87-.56-4.4a12.18,12.18,0,0,0,2.36-4.53,2.58,2.58,0,0,0-1.64-3.38,5.07,5.07,0,0,0-3.35-.1,5,5,0,0,0-3,6.34c.23.8.66,1.62,1.47,1.71,1.5.18,1.81,1.39,2,2.78,0,.3.14.59.23.92a7,7,0,0,1-4.18-3.13c-1.54-2.9-2.83-6-4.74-8.63-.9-1.26-.62-1.89.67-2.51,3.12-1.49,6.46-1.6,9.73-2.05,5.2-.72,10.39-1.55,15.57-2.39,5.9-1,11.82-1.76,17.67-3.11C871.79,329.21,876.47,327.52,878,327.33Z"/><path class="cls-8" d="M932.27,692.08c1.29-4.58,1.75-12.94.76-17.54,0-.15,0-.34,0-.47-.43-.86-.47-2.28-1.67-2.17s-.9,1.32-1.08,2.23c.4,8.16-.26,14-2.41,17.78-.1.6-.36.62-.73.65a102.42,102.42,0,0,1-10.94.61c-.8,0-1.17-.35-1.51-1.2a59.19,59.19,0,0,1-3.08-12.65c-.12-1.48.38-2.27.56-4.35.26-3.15-1.35-2.37-2.46-1.67a27.91,27.91,0,0,0,.41,19.56c-1.38-.14-2.62-.25-3.85-.4a29.08,29.08,0,0,0-6.41-.41c-1,.09-2.7.19-2.83-.94-1.06-9.7,12-24.28,23.35-23.73,3.53.17,7.14-.44,10.54,1.52,4.72,2.72,8.83,6.05,10.45,12.2,1.8,6.81-1.61,10.65-4.38,10.63C935.44,691.71,933.94,691.94,932.27,692.08Z"/><path class="cls-10" d="M924.13,512.65a8.43,8.43,0,0,1-.56.69C919.8,517.1,907.62,529,905.21,531c-2.18,1.86-4.07.78-6,.23-10.21-2.87-20.4-5.87-30.61-8.77a97.45,97.45,0,0,0-14.33-3.08,5.29,5.29,0,0,1-1.59-.44,2.28,2.28,0,0,1-1.28-1.72c-.07-.61.75-.58,1.18-.83s.91-.5,1.35-.77c1.88-1.15,3.73-2.53,5.94-1.64,1.26.51,37.2,8.4,39.42,9.39.42.19.72-.08,1-.3,6-4.6,11.95-9.23,17.71-14.19a10.53,10.53,0,0,0,1.7-1.58c.65-.87,1-.66,1.46.18.78,1.42,1.65,2.78,2.47,4.18C923.8,512,923.94,512.28,924.13,512.65Z"/><path class="cls-8" d="M791.25,432c-1.17-2.16-2.4-4.13-3.67-6.05a15.27,15.27,0,0,1-1.64-5.51c.14-4.07,1-8,1.4-12.07.54-6,3.2-19.77,4.36-20.48,1.64-1.05,18.18-4.58,20.05-4.07-.39.79-5.66,9-8.53,11.56a3.55,3.55,0,0,0-1,1.64c-3.36,10.42-6.59,20.88-9.24,31.58A7.86,7.86,0,0,1,791.25,432Z"/><path class="cls-10" d="M837,512.64c.47.06.31,1.39.1,2.08a2.86,2.86,0,0,1-2,1.74c-5.85,2.17-11.79,4.08-17.56,6.5-4.56,1.91-9.31,2.84-13.92,4.45-2,.7-4.78-.26-5.44-.44-.31-1,4-6.61,5.64-8.16C809.46,518.21,829.63,511.67,837,512.64Z"/><path class="cls-11" d="M846.2,546.76a14.37,14.37,0,0,1-8.05,5.32c-4.89,1.06-8.91-2-10.56-7.8a27.59,27.59,0,0,1-.74-9.12,3.54,3.54,0,0,0,2.61,2.69,5.14,5.14,0,0,0,3.34-.35c.35-.16.77-.42.72-.84s-.57-.45-.92-.42c-.91.08-1.81.26-2.72.29s-1.61-.15-1.72-1.33.79-1.13,1.48-1.34c1.44-.45,2.88.47,4.53-.09-.82-.66-.64-1.33-.36-2.14a7.42,7.42,0,0,1,4.12-4.69c.37,1.13-.24,2.23.13,3.57.95-2.49,1-5.07,2.33-7.35.37,1.49-.17,2.68-.26,3.91s-.62,2.41-.17,3.71c.81-.35.63-1.29,1-1.8,2,2.53,2.68,3.56,2,4.59,1.24,1.7,3-.35,4.46.81-.84,1.16-2,.92-3,1.1a5.83,5.83,0,0,1-.95,0c-.42,0-1.06-.34-1.17.31s.62.59,1,.82a1.29,1.29,0,0,1,.29.62c.11,2.41-2,6.18-4.19,6a2.55,2.55,0,0,0,1.94,0,1.56,1.56,0,0,1,2.14.81C844.11,545.38,845.54,545.53,846.2,546.76Z"/><path class="cls-12" d="M832.28,356c1.91,1.25,5.46.26,7-.65s3.22-.57,4.82-.74a71.09,71.09,0,0,0,29-9.2c.27-.16,3.25-1.78,3.62-1.93a18,18,0,0,1-.68,4.42c-.12.45-3.05,2.19-3.4,2.38-7.09,3.69-14.24,7.2-21.85,9.24a55.22,55.22,0,0,1-15.56,1.39C833.94,360.87,832.48,357.19,832.28,356Z"/><path class="cls-7" d="M832.4,509.17c-8.24,1.78-17.31,2.34-26,6.28l-.19-.34c1-1.44,2-2.89,3-4.32a105.35,105.35,0,0,0,8.2-12.83c.26-.51.38-.71.89-.37a130.64,130.64,0,0,1,14,11.21C832.36,508.84,832.35,509,832.4,509.17Z"/><path class="cls-11" d="M843.31,537.29l0-.68c1.27,0,2.57.18,3.78-.46.8-.42,1.68-1,1.45-2.19-.19-1-1.08-1.11-1.86-1.21-.45-.06-.89-.21-1.34-.26s-.65-.66-.85-1.1c-.28-.62.18-.83.49-1.12a16.06,16.06,0,0,0,2.66-2.73c.58-.87,1.28-1.87.51-3s-1.73-.44-2.57,0a10.73,10.73,0,0,0-2.71,2.37c-.22.25-.27.9-.8.54a1.15,1.15,0,0,1-.57-1.41,9.77,9.77,0,0,0,.15-3.3c0-.56-.16-1.27-.7-1.4s-.91.3-1.25.77a9.23,9.23,0,0,0-1.28,3.45c-.07.29,0,.8-.39.65a2.68,2.68,0,0,0-2.48.41c-.52.27-.56-.39-.7-.71a10.44,10.44,0,0,0-2.71-3.89,6.5,6.5,0,0,1,2.29-1.23c5-2.14,9.85-1.49,14.64.91a3.43,3.43,0,0,1,1.64,1.79c2.24,5.07,1.84,10.19.15,15.3a27.44,27.44,0,0,1-4,7.35c-.6-.17-.43-.71-.38-1.14a4.39,4.39,0,0,0-1.21-3.66,4.13,4.13,0,0,1-1.26-2.82A1.46,1.46,0,0,0,843.31,537.29Z"/><path class="cls-7" d="M782,554l-1.12,7.9c-.17,1.19-1.51,12.39-1.28,14.48.16,1.47-.33,1.81-1.47,1.12A2.61,2.61,0,0,1,777,576.3a23.65,23.65,0,0,1-1.87-9.71c.19-4.27,2.58-6.81,4.6-9.73C780.46,555.89,781.22,555,782,554Z"/><path class="cls-8" d="M783.38,603.83a165.3,165.3,0,0,0,5.27,15.72C782.22,617.84,779.79,612.93,783.38,603.83Z"/><path class="cls-13" d="M833.51,479.39c1,.1,2.9,1.51,3,2.62.11,1.87.54,5-.43,6.78a3.31,3.31,0,0,1-3.42,2,2.28,2.28,0,0,1-2.56-2C829.48,481.54,832.95,479.33,833.51,479.39Z"/><path class="cls-14" d="M827.12,534.28a20.71,20.71,0,0,1,3.43-10.37c.57,1.39.52,3.23,1.56,4.08,1.75,1.41.14,3,.5,4.5.09.38-.41.27-.64.24a12.44,12.44,0,0,0-2.72,0A2.34,2.34,0,0,0,827.12,534.28Z"/><path class="cls-15" d="M843.31,537.29c1.13-.62,1,.63,1,1.1a3.2,3.2,0,0,0,1.11,2.64,4.41,4.41,0,0,1,1.23,4.51c-.08.27-.08.51.18.66l-.62.57A5.78,5.78,0,0,1,843,544c-.43-.72-.82-.74-1.45-.38a2.43,2.43,0,0,1-2.57-.13c1.1-1,3.06-1.13,3.14-2.57S844,538.89,843.31,537.29Z"/><path class="cls-16" d="M817.75,425.33a3.06,3.06,0,0,1,3,3.33c-.09,1.9-.15,3.83-1.65,5.09-.43.36-.92.85-1.35-.22-.78-2-2.1-1.95-3.6-1.07-.51.3-1,1.4-1.73.22s-1.07-1.18-.18-3.1A7,7,0,0,1,817.75,425.33Z"/><path class="cls-17" d="M864.32,326c-3.66.66-16.68,2.85-20.34,3.52a75.56,75.56,0,0,0-14.52,3.86,17.62,17.62,0,0,0-4.26,2.8c-.24.19-.46,1.2-1,.28s.18-1,.55-1.25a28.15,28.15,0,0,1,7.52-4.25c6.37-2.25,22.24-4.33,28.87-4.93C862.18,325.92,863.2,325.53,864.32,326Z"/><path class="cls-17" d="M859.55,360.58c-.24,1.84-23.17,8.26-23.69,3,1.81-.38,12.77-.71,14.6-.92,3.91-.46,5-1.35,8.79-2.43C859.55,360.12,859.6,360.29,859.55,360.58Z"/><path class="cls-18" d="M843.83,529.83c-.36-.12-.47-.56-.7-.88s-.1-.57.12-.81a18.14,18.14,0,0,1,3.59-2.83c.37-.24.62-.16.68.33C847.63,526.49,844.61,529.92,843.83,529.83Z"/><path class="cls-19" d="M831.81,523.63a7.42,7.42,0,0,1,2.57,3.58c.17.46-.18.64-.39.89-.35.41-.59.06-.77-.22A9.66,9.66,0,0,1,831.81,523.63Z"/><path class="cls-20" d="M835.91,343.88c-.76.59-1.41,1-2.11.4-.25-.2-.11-.65.11-.83C834.67,342.81,835.17,343.65,835.91,343.88Z"/><path class="cls-6" d="M913.27,551.64c1.09-.49,1.71.29,2.34.83a13.06,13.06,0,0,1,4.14,14.13c-1.2,3.47-2.55,6.84-4,10.18a13.79,13.79,0,0,0-1.11,3.9c-.18,1.58.12,1.85,1.38,1.29.47-.21.91-.49,1.37-.72a6.57,6.57,0,0,1,6-.11c1.2.59,1.59,0,2.11-1.19,2.68-5.87,4.43-12.22,7.07-18.1a4.91,4.91,0,0,1,.49-1c2.48-3.29,1.9-6.84.6-10.39-.69-1.89-1.58-3.69-2.41-5.51a4,4,0,0,0-.79-1.09c-2.07-2.13-2.76-7.56-1.34-10.31.34-.65.74-1.13,1.37-1.12s1.18.57,1.38,1.33c.54,2,1.67,3.61,2.27,5.54.31,1,1.12,1.52,1.71,2.23,2.74,3.31,3.77,7.56,5.19,11.67,1.07,3.1.33,5.1-1.38,7.49s-2.77,5.33-4.13,8c-1.58,3.14-3.4,6.11-4.1,9.77-.52,2.74-2.23,4.91-2.92,7.62a53.57,53.57,0,0,0-.82,5.88c-.35,2.48,1.22,4,2.77,5.45,1.23,1.12,2.87,1.66,3.6,3.51a7.31,7.31,0,0,1,.62,4.23c-1,5-3.25,8.82-7.19,11.32-2.14,1.37-2.91,1.81-5.48,1.48-4.06-.52-12.19-11.47-13.27-15.88-.83-3.41-.52-6.68-.3-10,.49-7.56,3.15-14.44,5.19-21.5a68.31,68.31,0,0,0,1.54-7.44,2.53,2.53,0,0,0-.19-1.69,9,9,0,0,1-.93-5A16.38,16.38,0,0,0,913.27,551.64Z"/><path class="cls-6" d="M835.51,407.94c-.25.94.17,1.89-.11,3-.64-.53-1.4-.1-2-1.75-.47-5.63,1.34-9.66,4-13.95,3.24-5.31,8.81-7.65,12.7-6.19a14.14,14.14,0,0,1,8.05,7.38c2.09,5.19,1.14,19.81.43,20.07a3.78,3.78,0,0,1-2.1-3.12c.67-8.81-.19-18.88-9.26-20.16C839.39,392.08,835.26,408.27,835.51,407.94Z"/><path class="cls-6" d="M807.64,413.69c0,.36-.54,1.51-.91,1.16s-1-1.7-.35-6.5c2-14.57,15.29-20.75,19-12.25,1.39,3.06-2.13,16.44-3.49,15.33-.92-4.88,4-12.8-1.65-14.78-10.24,0-10.43,7.5-12.22,13.39A12.56,12.56,0,0,0,807.64,413.69Z"/><path class="cls-9" d="M835.09,407.94c.95-5.17,5.7-13.5,9.68-14.56a8.45,8.45,0,0,1,9.94,4.29c1.72,3.24,2,10.49,1.94,15.66C857.76,412.9,837.08,426.23,835.09,407.94Z"/><path class="cls-9" d="M807.81,411.65c-.82-7.08,6-18.88,12.79-15,3.1,1.74,3.23,3.75,1.31,14.83C821.21,415.44,809.11,422.92,807.81,411.65Z"/><path class="cls-6" d="M859.92,437.38c-.16.79-.52,1.15-1.11,1s-1.31-.53-1.12-1.59c.13-.73.22-1.58,1.12-1.42S859.55,436.78,859.92,437.38Z"/><path class="cls-6" d="M855.23,444.41a.69.69,0,0,1,.57.94c-.17.65-.14,1.6-1,1.63-.5,0-.73-.42-.66-1C854.2,445.29,854.27,444.5,855.23,444.41Z"/><path class="cls-6" d="M859.63,456.25a.93.93,0,0,1-.92-1c0-.57.3-1,.84-1a.9.9,0,0,1,.89,1A1,1,0,0,1,859.63,456.25Z"/><path class="cls-15" d="M835.41,548.68a7.65,7.65,0,0,0,1-4,9.42,9.42,0,0,1,.25-2.81c.09-.26.15-.51.43-.5s.39.25.4.52c.11,2.42.24,4.86-1,7-.27.46-.63.81-1.14.65s-.56-.73-.58-1.28a18.38,18.38,0,0,1,.28-3.46,1.11,1.11,0,0,0-.71-1.41c-.73-.32-.87.16-1.13.63a8.92,8.92,0,0,1-1.83,2.54c-.48.42-1.05.94-1.72.43s-.63-1.27-.48-2.1a7.23,7.23,0,0,1,1.35-2.89c.74-1,1.86-1.81,1.06-3.69,1.78,1,1.79,4.13,4.31,3.69C835.87,543.94,835.25,546.12,835.41,548.68Z"/><path class="cls-15" d="M837.66,538.8a2.92,2.92,0,0,1-3-2.88c0-1.94,1.41-3.79,2.86-3.81,2.5,0,3.23.53,3.23,2.49C840.73,537,839.44,538.81,837.66,538.8Z"/><path class="cls-19" d="M845.83,545.83c-.83-1-1.64-2-2.5-3-.33-.37-.16-.65,0-.93s.47-.15.69,0C845.13,542.88,846.1,543.93,845.83,545.83Z"/><path class="cls-8" d="M924.58,603.53a4.14,4.14,0,0,1-2,0,2.82,2.82,0,0,1-1.6-2.75c.31-1.48,1.43-3.58,2.89-4,.5-.15.36.06.27-.41-.13-.7-.8-.47-1.29-.36-1.25.28-4.5-.74-4-1a19.75,19.75,0,0,1,3.82-1.15.9.9,0,0,0,.48-1.58c-.75-.69-.5-1.25-.35-2.05s.46-1.8-.38-2.43c-1.77-1.34-5.19-1-6.81.56a13.75,13.75,0,0,0-3.92,8.37,11.1,11.1,0,0,0,.91,6.4,27.11,27.11,0,0,0,7.17,9c1.23,1,2.6,2.56,4.1,2.21a7.71,7.71,0,0,0,4.51-2.41,13.73,13.73,0,0,0,3-9.49,1.16,1.16,0,0,0-.4-.94s-1.61-1.37-2.23-1.32C927.46,600.22,925.74,602.93,924.58,603.53Z"/><path class="cls-21" d="M923.68,602c-1.16-.09-1.25-.53-1.33-1.28s1.55-4.28,4.06-3c.92.49.63,1.63-.16,2.38S924.72,602.17,923.68,602Z"/><path class="cls-19" d="M830,546.19c0-2.09,1-3.31,1.92-4.58.19-.26.41-.42.66-.06a.83.83,0,0,1,.1,1A10.55,10.55,0,0,1,830,546.19Z"/><path class="cls-22" d="M838.34,533.37c.68.13,1.54,0,1.37,1.45-.14,1.24-1.19,2.51-2.18,2.35-.72-.12-1.46-.34-1.42-1.51A2.24,2.24,0,0,1,838.34,533.37Z"/><path class="cls-6" d="M928.48,603.45c-.35-1.48-1.57-1.93-2.6-1.13a2.05,2.05,0,0,0-.87,1.11c-.35.77,0,1.28.43,1.94a1.85,1.85,0,0,0,2.16.07C928,605,928.68,604.31,928.48,603.45Zm-1.82,1.6a1.22,1.22,0,0,1-.88-.39,1.16,1.16,0,0,1,.48-1.64c.52-.4,1.37-.4,1.54.34A1.39,1.39,0,0,1,926.66,605.06Z"/><path class="cls-6" d="M932.2,601.77c-.44-1.83-1.94-2.38-3.22-1.39a2.53,2.53,0,0,0-1.08,1.37c-.43.95,0,1.58.53,2.4a2.28,2.28,0,0,0,2.66.08C931.58,603.66,932.45,602.83,932.2,601.77Zm-2.25,2a1.51,1.51,0,0,1-1.09-.49,1.43,1.43,0,0,1,.59-2c.64-.49,1.69-.5,1.91.42A1.72,1.72,0,0,1,929.95,603.75Z"/></g><g id="Auge_R"><ellipse class="cls-23" cx="813.27" cy="406.11" rx="6.2" ry="7.18"/><ellipse class="cls-24" cx="812.55" cy="403.69" rx="2.48" ry="2.87"/></g><g id="Auge_L"><ellipse class="cls-23" cx="840.86" cy="403.61" rx="6.2" ry="7.18"/><ellipse class="cls-24" cx="840.05" cy="401.02" rx="2.48" ry="2.87"/></g></svg>