<?xml version="1.0" standalone="no"?>
<!DOCTYPE svg PUBLIC "-//W3C//DTD SVG 20010904//EN"
 "http://www.w3.org/TR/2001/REC-SVG-20010904/DTD/svg10.dtd">
<svg version="1.0" xmlns="http://www.w3.org/2000/svg"
 width="16.000000pt" height="16.000000pt" viewBox="0 0 16.000000 16.000000"
 preserveAspectRatio="xMidYMid meet">
<metadata>
Created by potrace 1.11, written by Peter Selinger 2001-2013
</metadata>
<g transform="translate(0.000000,16.000000) scale(0.009412,-0.009412)"
fill="#000000" stroke="none">
<path d="M647 1674 c-85 -17 -94 -29 -70 -96 l20 -54 -31 -37 c-17 -20 -38
-37 -46 -37 -36 0 -91 -23 -105 -43 -12 -20 -19 -53 -29 -142 -2 -16 3 -42 10
-57 8 -15 11 -39 8 -57 -4 -17 1 -53 12 -86 13 -43 27 -65 61 -93 23 -20 43
-43 43 -52 0 -9 -18 -41 -41 -71 -22 -30 -52 -76 -66 -104 -14 -27 -38 -68
-52 -90 -34 -51 -37 -78 -14 -118 25 -42 34 -78 24 -91 -9 -11 -14 -39 -12
-69 0 -10 16 -26 34 -37 17 -10 38 -32 44 -47 7 -15 30 -51 52 -79 l39 -52
-43 -5 c-60 -6 -132 -50 -152 -93 -27 -55 -16 -59 168 -56 210 2 248 13 240
65 0 4 17 7 39 7 48 0 43 -1 78 10 l29 8 -7 -39 c-4 -21 -3 -42 2 -47 14 -14
211 -3 227 13 24 23 6 101 -30 127 -24 18 -27 24 -16 37 26 34 72 141 75 174
0 9 13 84 18 112 2 11 7 33 9 49 7 34 28 76 68 135 19 29 30 55 29 76 -1 23 6
39 24 56 41 38 48 58 30 78 -15 16 -13 21 25 59 51 53 52 88 1 84 -18 -1 -50
-11 -71 -22 -58 -29 -155 -131 -171 -179 -7 -22 -16 -41 -19 -41 -9 0 -69 100
-83 138 -11 29 -9 35 25 85 48 69 56 98 50 178 -6 73 -6 98 -1 192 3 76 -5 88
-57 86 -16 0 -35 -1 -42 0 -12 1 -53 53 -58 74 -15 62 -16 62 -86 41 -14 -4
-15 3 -8 53 4 31 5 61 3 65 -8 12 -104 7 -177 -8z"/>
</g>
</svg>
